{
  "accessors": [
    {
      "bufferView": 2,
      "componentType": 5126,
      "count": 242,
      "max": [
        0.06671108305454254,
        0.011811194941401482,
        0.0006700000376440585
      ],
      "min": [
        -0.06671108305454254,
        -0.01929772086441517,
        -0.0006699990481138229
      ],
      "type": "VEC3"
    },
    {
      "bufferView": 2,
      "byteOffset": 2904,
      "componentType": 5126,
      "count": 242,
      "max": [
        1.0,
        1.0,
        0.0
      ],
      "min": [
        -1.0,
        -1.0,
        0.0
      ],
      "type": "VEC3"
    },
    {
      "bufferView": 1,
      "componentType": 5126,
      "count": 242,
      "max": [
        1.0,
        0.9999995827674866
      ],
      "min": [
        0.0,
        0.0
      ],
      "type": "VEC2"
    },
    {
      "bufferView": 0,
      "componentType": 5125,
      "count": 630,
      "type": "SCALAR"
    },
    {
      "bufferView": 2,
      "byteOffset": 5808,
      "componentType": 5126,
      "count": 278,
      "max": [
        0.06671108305454254,
        0.011811194941401482,
        0.0006700000376440585
      ],
      "min": [
        -0.06671108305454254,
        -0.01929772086441517,
        -0.0006699990481138229
      ],
      "type": "VEC3"
    },
    {
      "bufferView": 2,
      "byteOffset": 9144,
      "componentType": 5126,
      "count": 278,
      "max": [
        9.305203008125318e-08,
        0.0,
        1.0
      ],
      "min": [
        -1.3850866764641978e-07,
        0.0,
        -1.0
      ],
      "type": "VEC3"
    },
    {
      "bufferView": 1,
      "byteOffset": 1936,
      "componentType": 5126,
      "count": 278,
      "max": [
        1.0,
        0.9999997615814209
      ],
      "min": [
        0.0,
        0.0006424784660339355
      ],
      "type": "VEC2"
    },
    {
      "bufferView": 0,
      "byteOffset": 2520,
      "componentType": 5125,
      "count": 1050,
      "type": "SCALAR"
    },
    {
      "bufferView": 2,
      "byteOffset": 12480,
      "componentType": 5126,
      "count": 1824,
      "max": [
        0.06176696717739105,
        0.00433242367580533,
        0.0011225849157199264
      ],
      "min": [
        -0.062059223651885986,
        -0.01468612439930439,
        -0.001122589805163443
      ],
      "type": "VEC3"
    },
    {
      "bufferView": 2,
      "byteOffset": 34368,
      "componentType": 5126,
      "count": 1824,
      "max": [
        1.0,
        1.0,
        3.8824475723231444e-07
      ],
      "min": [
        -1.0,
        -1.0,
        -0.7071095705032349
      ],
      "type": "VEC3"
    },
    {
      "bufferView": 1,
      "byteOffset": 4160,
      "componentType": 5126,
      "count": 1824,
      "max": [
        0.4315115213394165,
        1.0
      ],
      "min": [
        0.125,
        0.0
      ],
      "type": "VEC2"
    },
    {
      "bufferView": 0,
      "byteOffset": 6720,
      "componentType": 5125,
      "count": 3648,
      "type": "SCALAR"
    },
    {
      "bufferView": 2,
      "byteOffset": 56256,
      "componentType": 5126,
      "count": 912,
      "max": [
        0.06176696717739105,
        0.00433242367580533,
        0.0011225845664739609
      ],
      "min": [
        -0.06163898855447769,
        -0.01434786431491375,
        -0.0011225895723327994
      ],
      "type": "VEC3"
    },
    {
      "bufferView": 2,
      "byteOffset": 67200,
      "componentType": 5126,
      "count": 912,
      "max": [
        1.0,
        1.0,
        0.0
      ],
      "min": [
        -1.0,
        -1.0,
        -0.7071095705032349
      ],
      "type": "VEC3"
    },
    {
      "bufferView": 1,
      "byteOffset": 18752,
      "componentType": 5126,
      "count": 912,
      "max": [
        0.43151146173477173,
        0.9166666269302368
      ],
      "min": [
        0.2083333283662796,
        0.3333333134651184
      ],
      "type": "VEC2"
    },
    {
      "bufferView": 0,
      "byteOffset": 21312,
      "componentType": 5125,
      "count": 1368,
      "type": "SCALAR"
    },
    {
      "bufferView": 2,
      "byteOffset": 78144,
      "componentType": 5126,
      "count": 28,
      "max": [
        -0.0005164444446563721,
        0.0007617538794875145,
        -0.00068377994466573
      ],
      "min": [
        -0.055164530873298645,
        -0.011035693809390068,
        -0.001807889435440302
      ],
      "type": "VEC3"
    },
    {
      "bufferView": 2,
      "byteOffset": 78480,
      "componentType": 5126,
      "count": 28,
      "max": [
        0.1751788854598999,
        0.018522774800658226,
        -0.9845358729362488
      ],
      "min": [
        7.424440617853634e-09,
        0.0,
        -1.0
      ],
      "type": "VEC3"
    },
    {
      "bufferView": 1,
      "byteOffset": 26048,
      "componentType": 5126,
      "count": 28,
      "max": [
        0.9999999403953552,
        1.0
      ],
      "min": [
        0.0,
        0.0
      ],
      "type": "VEC2"
    },
    {
      "bufferView": 0,
      "byteOffset": 26784,
      "componentType": 5125,
      "count": 78,
      "type": "SCALAR"
    },
    {
      "bufferView": 2,
      "byteOffset": 78816,
      "componentType": 5126,
      "count": 340,
      "max": [
        0.05881718546152115,
        0.000965009443461895,
        0.0017250016098842025
      ],
      "min": [
        -0.054977335035800934,
        -0.010783921927213669,
        -0.0017249982338398695
      ],
      "type": "VEC3"
    },
    {
      "bufferView": 2,
      "byteOffset": 82896,
      "componentType": 5126,
      "count": 340,
      "max": [
        1.0,
        1.0,
        1.0
      ],
      "min": [
        -1.0,
        -1.0,
        -1.0
      ],
      "type": "VEC3"
    },
    {
      "bufferView": 1,
      "byteOffset": 26272,
      "componentType": 5126,
      "count": 340,
      "max": [
        0.9840974807739258,
        0.9836776852607727
      ],
      "min": [
        0.021075278520584106,
        0.013489976525306702
      ],
      "type": "VEC2"
    },
    {
      "bufferView": 0,
      "byteOffset": 27096,
      "componentType": 5125,
      "count": 510,
      "type": "SCALAR"
    }
  ],
  "asset": {
    "extras": {
      "author": "BlackCube (https://sketchfab.com/blackcube4)",
      "license": "CC-BY-4.0 (http://creativecommons.org/licenses/by/4.0/)",
      "source": "https://sketchfab.com/3d-models/crucial-8-gb-ddr4-2133-ram-6fa0d3b8c5684741be7d7e396e01bc9f",
      "title": "Crucial 8 GB DDR4 2133 RAM"
    },
    "generator": "Sketchfab-12.67.0",
    "version": "2.0"
  },
  "bufferViews": [
    {
      "buffer": 0,
      "byteLength": 29136,
      "name": "floatBufferViews",
      "target": 34963
    },
    {
      "buffer": 0,
      "byteLength": 28992,
      "byteOffset": 29136,
      "byteStride": 8,
      "name": "floatBufferViews",
      "target": 34962
    },
    {
      "buffer": 0,
      "byteLength": 86976,
      "byteOffset": 58128,
      "byteStride": 12,
      "name": "floatBufferViews",
      "target": 34962
    }
  ],
  "buffers": [
    {
      "byteLength": 145104,
      "uri": "scene.bin"
    }
  ],
  "extensionsUsed": [
    "KHR_materials_clearcoat"
  ],
  "images": [
    {
      "uri": "textures/Front_baseColor.png"
    },
    {
      "uri": "textures/Front_metallicRoughness.png"
    },
    {
      "uri": "textures/Sticker_baseColor.png"
    },
    {
      "uri": "textures/Storage_baseColor.png"
    }
  ],
  "materials": [
    {
      "doubleSided": true,
      "name": "Side",
      "pbrMetallicRoughness": {
        "baseColorFactor": [
          0.0587655,
          0.0790311,
          0.0586283,
          1.0
        ],
        "metallicFactor": 0.0,
        "roughnessFactor": 0.5
      }
    },
    {
      "doubleSided": true,
      "extensions": {
        "KHR_materials_clearcoat": {
          "clearcoatFactor": 0.0708676866,
          "clearcoatRoughnessFactor": 0.04
        }
      },
      "name": "Front",
      "pbrMetallicRoughness": {
        "baseColorTexture": {
          "index": 0
        },
        "metallicRoughnessTexture": {
          "index": 1
        },
        "roughnessFactor": 0.2655705135
      }
    },
    {
      "doubleSided": true,
      "name": "Silver",
      "pbrMetallicRoughness": {
        "baseColorFactor": [
          0.195988,
          0.195988,
          0.195988,
          1.0
        ],
        "roughnessFactor": 0.6047302766293898
      }
    },
    {
      "doubleSided": true,
      "name": "Bronze",
      "pbrMetallicRoughness": {
        "baseColorFactor": [
          0.3757499999999999,
          0.20946200000000004,
          0.115806,
          1.0
        ],
        "roughnessFactor": 0.4163081860234872
      }
    },
    {
      "doubleSided": true,
      "name": "Sticker",
      "pbrMetallicRoughness": {
        "baseColorTexture": {
          "index": 2
        },
        "metallicFactor": 0.0,
        "roughnessFactor": 0.225630525
      }
    },
    {
      "doubleSided": true,
      "name": "Storage",
      "pbrMetallicRoughness": {
        "baseColorFactor": [
          0.7743101582,
          0.7743101582,
          0.7743101582,
          1.0
        ],
        "baseColorTexture": {
          "index": 3
        },
        "metallicFactor": 0.0,
        "roughnessFactor": 0.4602733405
      }
    }
  ],
  "meshes": [
    {
      "name": "RAM_Side_0",
      "primitives": [
        {
          "attributes": {
            "NORMAL": 1,
            "POSITION": 0,
            "TEXCOORD_0": 2
          },
          "indices": 3,
          "material": 0,
          "mode": 4
        }
      ]
    },
    {
      "name": "RAM_Front_0",
      "primitives": [
        {
          "attributes": {
            "NORMAL": 5,
            "POSITION": 4,
            "TEXCOORD_0": 6
          },
          "indices": 7,
          "material": 1,
          "mode": 4
        }
      ]
    },
    {
      "name": "RAM_Silver_0",
      "primitives": [
        {
          "attributes": {
            "NORMAL": 9,
            "POSITION": 8,
            "TEXCOORD_0": 10
          },
          "indices": 11,
          "material": 2,
          "mode": 4
        }
      ]
    },
    {
      "name": "RAM_Bronze_0",
      "primitives": [
        {
          "attributes": {
            "NORMAL": 13,
            "POSITION": 12,
            "TEXCOORD_0": 14
          },
          "indices": 15,
          "material": 3,
          "mode": 4
        }
      ]
    },
    {
      "name": "RAM_Sticker_0",
      "primitives": [
        {
          "attributes": {
            "NORMAL": 17,
            "POSITION": 16,
            "TEXCOORD_0": 18
          },
          "indices": 19,
          "material": 4,
          "mode": 4
        }
      ]
    },
    {
      "name": "RAM_Storage_0",
      "primitives": [
        {
          "attributes": {
            "NORMAL": 21,
            "POSITION": 20,
            "TEXCOORD_0": 22
          },
          "indices": 23,
          "material": 5,
          "mode": 4
        }
      ]
    }
  ],
  "nodes": [
    {
      "children": [
        1
      ],
      "matrix": [
        1.0,
        0.0,
        0.0,
        0.0,
        0.0,
        2.220446049250313e-16,
        -1.0,
        0.0,
        0.0,
        1.0,
        2.220446049250313e-16,
        0.0,
        0.0,
        0.0,
        0.0,
        1.0
      ],
      "name": "Sketchfab_model"
    },
    {
      "children": [
        2
      ],
      "matrix": [
        0.009999999776482582,
        0.0,
        0.0,
        0.0,
        0.0,
        0.0,
        0.009999999776482582,
        0.0,
        0.0,
        -0.009999999776482582,
        0.0,
        0.0,
        0.0,
        0.0,
        0.0,
        1.0
      ],
      "name": "RAM.fbx"
    },
    {
      "children": [
        3
      ],
      "name": "RootNode"
    },
    {
      "children": [
        4,
        5,
        6,
        7,
        8,
        9
      ],
      "matrix": [
        -99.99999999999432,
        -8.742277980456027e-06,
        3.258413698858873e-05,
        0.0,
        -3.258413215991702e-05,
        -5.523350861125209e-05,
        -99.99999999997944,
        0.0,
        8.742295977816343e-06,
        -99.99999999998437,
        5.523350576908115e-05,
        0.0,
        0.0,
        0.0,
        0.0,
        1.0
      ],
      "name": "RAM"
    },
    {
      "mesh": 0,
      "name": "RAM_Side_0"
    },
    {
      "mesh": 1,
      "name": "RAM_Front_0"
    },
    {
      "mesh": 2,
      "name": "RAM_Silver_0"
    },
    {
      "mesh": 3,
      "name": "RAM_Bronze_0"
    },
    {
      "mesh": 4,
      "name": "RAM_Sticker_0"
    },
    {
      "mesh": 5,
      "name": "RAM_Storage_0"
    }
  ],
  "samplers": [
    {
      "magFilter": 9729,
      "minFilter": 9987,
      "wrapS": 10497,
      "wrapT": 10497
    }
  ],
  "scene": 0,
  "scenes": [
    {
      "name": "Sketchfab_Scene",
      "nodes": [
        0
      ]
    }
  ],
  "textures": [
    {
      "sampler": 0,
      "source": 0
    },
    {
      "sampler": 0,
      "source": 1
    },
    {
      "sampler": 0,
      "source": 2
    },
    {
      "sampler": 0,
      "source": 3
    }
  ]
}
